<svg xmlns="http://www.w3.org/2000/svg" xmlns:xlink="http://www.w3.org/1999/xlink" xml:space="preserve" width="13520" height="3380" viewBox="0 0 13520 3380"><defs><linearGradient id="a"><stop offset="0" style="stop-color:#e85c2c;stop-opacity:1"/><stop offset="1" style="stop-color:#f39333;stop-opacity:1"/></linearGradient><linearGradient xlink:href="#a" id="b" x1="-634.063" x2="-634.063" y1="-252.283" y2="-40.617" gradientTransform="translate(9222.976 1467.272)scale(5.58002)" gradientUnits="userSpaceOnUse"/></defs><path d="M-947.744-224.067H90.815v259.64H-947.744z" style="fill:#fff;fill-opacity:1;stroke:none;stroke-width:.479534;stroke-linecap:round;stroke-linejoin:round" transform="translate(12337.764 2916.916)scale(13.01804)"/><path d="M-947.744-15.09H90.815v50.567H-947.744z" style="fill:#d0ae89;fill-opacity:1;stroke:none;stroke-width:.449368;stroke-linecap:round;stroke-linejoin:round" transform="translate(12337.764 2916.916)scale(13.01804)"/><path d="M-4750.674 2631.359h13520v94.488h-13520z" style="fill:#d1904e;fill-opacity:1;stroke-width:1.31283;stroke-linecap:round;stroke-linejoin:round" transform="translate(4750.674)"/><path d="M5731.974 2699.248c-3.582-1.603-19.215-3.865-34.739-5.027-15.524-1.163-56.98-4.486-92.124-7.387-142.345-11.746-214.558-16.222-313.883-19.457-164.47-5.355-302.02-11.718-484.15-22.399-137.87-8.084-208.705-9.149-613.33-9.216-333.896-.053-336.77 1.622-385.367 2.437 0-2.784 4.125-15.357 9.168-18.696 5.043-3.338 12.231-8.424 15.973-11.3 3.743-2.878 7.237-4.255 8.2-4.36 14.255-1.573 20.542-20.056 44.377-20.056 8.014 0 61.231-21.234 61.231-24.432 0-1.65 3.908-3.997 8.685-5.214 4.776-1.219 8.684-4.463 8.684-7.211s1.822-4.997 4.05-4.997 5.29-3.139 6.806-6.975c1.516-3.837 5.729-6.112 8.976-6.976 9.748-2.596 24.24-19.634 60.969-22.443 11.682-.894 36.455-2.698 55.05-4.009 26.63-1.878 34.73-3.767 38.147-8.893 2.803-4.208 9.103-6.51 17.817-6.51 7.414 0 15.692-2.428 18.395-5.397 3.976-4.369 18.078-5.668 73.912-6.812 48.152-.986 69.993-2.705 72.289-5.689 2.588-3.364 8.393-3.293 27.196.33 14.425 2.78 31.353 3.642 42.685 2.176 10.328-1.337 28.55-3.17 40.49-4.074 11.941-.905 35.389-3.886 52.106-6.627 46.268-7.586 85.316-4.822 127.008-16.42 30.293-3.111 25.25-22.973 75.318-10.421 7.54 2.357 62.167 2.443 165.002.261 84.552-1.795 332.519-3.653 551.038-4.13 89.363-.195 89.731 1.155 153.793 32.517 30.451 14.908 76.094-13.029 148.88-30.987 44.747-11.04 63.292-1.35 120.71-8.279 48.046-5.797 85.89-17.116 143.179-23.993 54.561-6.55 123.723-9.268 131.945-5.186 2.214 1.099 26.217 4.356 53.34 7.239s54.201 6.199 60.172 7.37c5.97 1.17 74.36 3.477 151.975 5.124 124.857 2.65 204.011 6.387 245.332 11.584 7.164.902 36.474 3.358 65.132 5.46s56.991 4.562 62.962 5.467c5.97.906 21.113 1.898 33.651 2.206s22.797 1.78 22.797 3.27 20.028 3.545 44.507 4.566c90.416 3.77 109.44 5.715 125.87 12.86 14.914 6.487 24.964 7.114 123.752 7.732 78.02.488 111.094 1.935 120.547 5.277 7.164 2.532 13.693 4.39 14.507 4.127s3.746 1.737 6.513 4.442c7.543 7.374 55.522 19.96 76.086 19.96 9.93 0 26.338 3.142 36.462 6.981 108.91 51.901 84.937 97.089 180.502 104.781 17.633 1.42 98.398 16.462 98.398 16.462l.023 12.923-353.477-.235s-413.895-5.815-586.585 10.934c-86.687 8.408-124.631 11.7-180.2 15.637-54.762 3.879-96.722 9.641-104.49 14.35-4.339 2.63-38.465 10.116-77.88 17.086-22.135 3.915-579.66 4.15-588.38.25z" style="fill:#d37d35;stroke:none;stroke-width:14.7085;stroke-opacity:1" transform="translate(4750.674)"/><path d="m-263.836 227.243 28.567 8.035 28.27-8.05z" style="fill:#1c96a6;fill-opacity:1;stroke:none;stroke-width:.694021;stroke-linecap:round;stroke-linejoin:bevel;stroke-dasharray:none;stroke-opacity:1" transform="translate(13571.797 113.658)scale(13.18236)"/><path d="m-307.993 214.79 28.05 7.947 88.762.004 28.4-7.985z" style="fill:#168ea2;fill-opacity:1;stroke:none;stroke-width:.694021;stroke-linecap:round;stroke-linejoin:bevel;stroke-dasharray:none;stroke-opacity:1" transform="translate(13571.797 113.658)scale(13.18236)"/><path d="m-352.457 202.263 27.885 7.881 178.048-.045 27.855-7.84z" style="fill:#0e7996;fill-opacity:1;stroke:none;stroke-width:.694021;stroke-linecap:round;stroke-linejoin:bevel;stroke-dasharray:none;stroke-opacity:1" transform="translate(13571.797 113.658)scale(13.18236)"/><path d="M-2608.7-1088.737c-15.787-34.322-17.664-37.02-30.051-53.953-16.647-10.544-29.645-11.62-54.571-2.726-9.506 15.287-13.167 30.24-14.71 58.735-55.77-5.903-107.023-9.335-121.526-11.57-7.602-11.628-11.987-17.668-26.446-39.636-11.72-3.155-28.524-4.006-36.417-4.728-4.533 13.248-5.106 19.944-8.303 36.715-10.7-2.011-23.374-4.687-39.988-7.57-9.471-11.331-8.583-11.644-11.955-19.996-7.931-47.276-9.232-48.958-9.72-93.137v-5.982l47.253-.615c48.47-.63 62.95-2.094 123.942-3.105 77.943-1.29 87.385-2.434 232.194-4.696-.176 15.304.855 132.624.855 132.624l-15.94.124-.112 26.067s-5.651-1.163-34.505-6.55z" style="fill:#0b85aa;fill-opacity:1;stroke:#0b85aa;stroke-width:.787491;stroke-linecap:round;stroke-linejoin:bevel;stroke-opacity:1" transform="translate(19168.399 6015.948)scale(3.28472)"/><path d="m-2561.27-1109.633-.83-130.402 118.83 1.936c32.05-.303 97.613 3.087 97.613 3.087 8.848 33.024 13.6 36.321 9.965 36.463-16.276.634-157.94-1.663-174.592 2.348-9.205 2.218-18.502 14.834-19.398 31.017-.725 13.092 1.6 15.168 6.13 19.699 4.899 4.897 2.402 5.285 41.387 3.603 35.855-1.548 114.494-2.767 122.47-4.696 2.412-.584 6.486-.888 8.107-3.876s2.983-4.257 3.027-2.82c.126 4.152-.408 27.73-1.905 38.04-19.853 2.374-176.34 5.794-210.804 5.6" style="fill:#0b85aa;fill-opacity:1;stroke:none;stroke-width:3.14997;stroke-linecap:round;stroke-linejoin:bevel;stroke-opacity:1" transform="translate(19168.399 6015.948)scale(3.28472)"/><path d="M-2956.91-1371.548c3.156-19.838 9.822-49.907 22.253-58.259 8.907-3.437 265.481-30.902 296.138-30.778 21.867 10.09 23.697 11.416 36.946 19.805 6.394.233 86.798 3.877 114.707 6.336 49.33 4.345 51.343 4.626 92.531 11.903 7.578 6.16 12.506 10.516 21.196 24.87 6.41 18.388 5.009 24.675 3.787 28.031-67.865-4.687-79.056-7.239-125.73-10.93-51.819-4.096-53.1-4.06-105.922-10.975-40.114-1.747-55.026-1.629-74.946.02-26.042 2.155-280.96 19.977-280.96 19.977z" style="fill:#0b85aa;fill-opacity:1;stroke:#0b85aa;stroke-width:3.14997;stroke-linecap:round;stroke-linejoin:bevel;stroke-opacity:1" transform="translate(19168.399 6015.948)scale(3.28472)"/><path d="m-2868.63-1268.532-2.481-74.007 62.99-3.476 2.597 76.773z" style="fill:silver;fill-opacity:1;stroke:#986836;stroke-width:.787491;stroke-linecap:round;stroke-linejoin:bevel;stroke-opacity:1" transform="translate(19168.399 6015.948)scale(3.28472)"/><path d="M-2717.309-1262.227c1.279-19.841 5.6-59.892 8.144-80.463 74.571-4.216 54.431-2.2 104.151-3.482 11.641 36.716 17.114 51.456 25.268 80.796-17.898-3.906-112.101 4.406-137.563 3.149M-2547.316-1269.973c-4.747-5.519-14.06-37.503-17.197-50.09-3.45-13.84-8.053-27.087-5.073-30.403 2.086-2.32 12.103-1.558 17.096-2.77 7.315-1.774 49.265-.913 72.206.536 22.07 1.394 65.488 5.336 78.9 8.438 2.922.676 7.44 10.83 7.696 11.614 15.223 46.658 20.916 59.134 20.025 74.98-63.328-.779-163.713-.746-173.653-12.305" style="fill:silver;fill-opacity:1;stroke:none;stroke-width:.787491;stroke-linecap:round;stroke-linejoin:bevel;stroke-opacity:1" transform="translate(19168.399 6015.948)scale(3.28472)"/><path d="M-711.949-329.596c.79-1.364 7.905-9.195 8.355-9.195.324 0-.192.633-4.506 5.523-1.942 2.201-3.646 4.002-3.786 4.002s-.168-.148-.063-.33m-.425-3.088c0-.728 6.657-8.516 6.998-8.187.096.092-1.274 1.878-3.043 3.969-3.997 4.72-3.955 4.675-3.955 4.218m.152-3.66c4.403-5.482 6.327-7.556 5.846-6.303-.303.79-6.092 7.56-6.464 7.56-.258 0-.047-.428.618-1.256" style="fill:#0c1111" transform="translate(19153.772 5892.451)scale(12.41468)"/><path d="M-2664.355-1041.302c-6.805-2.203-16.539-9.881-21.08-16.627-6.618-9.83-10.51-26.094-9.482-39.611 1.055-13.857 5.233-24.415 12.779-32.288 5.151-5.375 9.828-8.273 15.08-9.345 7.24-1.478 15.822 1.978 22.998 9.261 8.139 8.261 13.238 19.547 15.306 33.877.824 5.71.833 16.992.018 21.398-1.88 10.156-5.445 16.845-13.039 24.464-3.8 3.812-6.657 5.991-9.827 7.497-5.012 2.38-8.487 2.755-12.752 1.374zm12.037-6.335c9.549-2.488 16.9-12.966 19.53-27.838.912-5.154 1.251-16.007.69-22.097-.462-5.024-1.285-7.77-4.054-13.53-5.888-12.249-14.946-21.091-23.413-22.857-9.64-2.01-19.436 5.477-25.189 19.251-3.032 7.26-4.542 15.322-4.55 24.285-.01 8.023 1.115 14.632 3.556 20.961 2.719 7.051 10.26 15.498 17.64 19.754 4.164 2.402 11.05 3.305 15.79 2.07zM-2868.74-1054.936c-6.656-2.206-13.391-10.072-15.41-17.998-.901-3.534-.66-3.329 1.717 1.454 2.536 5.103 4.067 7.179 6.761 9.168 2.586 1.908 4.687 2.63 7.684 2.642 5.964.023 10.636-2.92 14.828-9.341 6.667-10.214 7.732-27.347 2.483-39.957-2.277-5.47-8.438-14.584-11.475-16.976-3.294-2.595-8.027-4.167-11.463-3.808-8.36.874-14.2 9.037-17.22 24.07-1.15 5.722-1.376 6.24-1.896 4.366-1.587-5.715 1.803-16.527 7.533-24.032 5.016-6.569 10.707-9.326 16.296-7.895 6.983 1.787 12.252 6.557 16.303 14.757 2.486 5.031 3.79 8.648 5.436 15.084 1.705 6.664 2.142 9.908 2.143 15.9 0 12.162-3.335 21.622-9.841 27.903-4.278 4.13-9.844 6-13.878 4.663z" style="fill:#dee1da;fill-opacity:1;stroke:#dee1da;stroke-width:.55684;stroke-linecap:round;stroke-linejoin:bevel;stroke-opacity:1" transform="translate(19168.399 6015.948)scale(3.28472)"/><path d="M-2871.02-1061.47c-1.543-.556-6.484-3.633-7.335-4.694-4.592-5.725-7.222-15.867-7.222-24.122 0-8.146 3.748-20.596 8.711-25.36 2.24-2.15 4.612-2.981 8.635-3.238 3.917-.25 5.655.484 8.338 2.057 3.416 2.002 6.472 7.718 7.825 12.156.535 1.755 3.499 7.157 3.499 14.073 0 10.973-2.677 12.546-4.67 16.607-4.918 10.015-10.807 15.032-17.78 12.521zM-2666.173-1055.113c-4.516-2.25-9.848-9.863-12.406-15.246-1.94-4.08-4.429-8.009-4.038-18.822.448-12.438 2.275-15.417 5.436-21.908 3.854-7.913 13.522-13.535 19.769-13.535 2.736 0 8.375 2.552 11.43 6.114 11.839 13.8 14.13 39.348 5.368 53.925-6.239 10.379-16.779 13.848-25.56 9.472z" style="fill:#7b8385;fill-opacity:1;stroke:#7b8385;stroke-width:1.11368;stroke-linecap:round;stroke-linejoin:bevel;stroke-opacity:1" transform="translate(19168.399 6015.948)scale(3.28472)"/><path d="M-2518.603-1141.208c-10.95-20.51-11.573-27.09-4.308-45.092 9.754-8.448 15.31-11.153 66.425-11.043 91.78.198 102.437.608 119.508.117.704 15.09.69 5.242-.425 10.073-29.731 30.993-4.133 4.779-41.462 42.654-46.798 1.87-98.458 3.246-139.738 3.291" style="fill:#dee1da;fill-opacity:1;stroke:none;stroke-width:.27842;stroke-linecap:round;stroke-linejoin:bevel;stroke-opacity:1" transform="translate(19168.399 6015.948)scale(3.28472)"/><path d="M-2951.793-1083.48c-3.201-1.603-6.382-7.808-7.256-14.153-.53-3.838.383-6.774 1.726-5.558.557.503 1.681 2.959 3.585 7.828.88 2.251 2.335 5.676 3.233 7.61.897 1.934 1.66 3.776 1.694 4.093.055.507-.056.583-.93.643-.634.043-1.375-.123-2.052-.463z" style="fill:#dee1da;fill-opacity:1;stroke:#dee1da;stroke-width:.393746;stroke-linecap:round;stroke-linejoin:bevel;stroke-opacity:1" transform="translate(19168.399 5904.267)scale(3.28472)"/><path d="M-2956.715-1363.961c-.668-.493-.806-.871-.449-1.234.73-.742 10.463-1.726 36.94-3.733l62.507-4.74c42.323-3.21 78.86-6.217 99.218-8.166 15.555-1.49 17.724-1.642 31.998-2.26 14.06-.61 22.672-1.18 41.175-2.728 22.1-1.85 37.294-2.754 47.456-2.827 8.034-.058 9.432.048 10.575.797 1.108.726 1.217.985.685 1.626-1.476 1.778-4.556 2.09-38.624 3.905-51.016 2.72-110.396 6.718-139.417 9.388-9.339.859-62.276 4.57-92.257 6.466-21.752 1.377-43.732 2.99-50.849 3.733-6.144.641-7.84.598-8.958-.227z" style="fill:#dee1da;fill-opacity:1;stroke:#dee1da;stroke-width:.787491;stroke-linecap:round;stroke-linejoin:bevel;stroke-opacity:1" transform="translate(19168.399 6015.948)scale(3.28472)"/><path d="M-2951.613-1235.49c-6.94-.296-10.395 1.51-10.05-2.1.23-2.428 11.092-2.275 19.258-2.789 3.949-.248 18.575-.567 25.432-.62 6.648-.052 31.522-.599 45.34-.785 19.534-.264 37.134-2.597 65.51-3.082 104.06-1.074 146.099-1.154 239.197-1.048.766 3.928-.155 1.841-.223 6.647-94.157-.23-177.89.113-196.88.01-49.517.968-51.42 1.285-125.407 2.033-44.468.45-55.387 2.027-62.177 1.737z" style="fill:#dee1da;fill-opacity:1;stroke:#dee1da;stroke-width:.27842;stroke-linecap:round;stroke-linejoin:bevel;stroke-opacity:1" transform="translate(19168.399 6015.948)scale(3.28472)"/><path d="M-2405.329-1425.465c-44.547-5.76-68.048-8.61-93.33-10.798-25.28-2.188-52.342-3.716-104.011-6.835-15.406-8.843-18.19-9.924-32.173-16.831 0 0 23.54 1.21 29.714 1.668 14.851 1.105 132.666 15.11 162.876 19.503 24.442 3.554 29.827 4.203 37.46 7.601 9.963 5.125 16.64 7.914-.536 5.692" style="baseline-shift:baseline;display:inline;overflow:visible;opacity:1;vector-effect:none;fill:#dee1da;fill-opacity:1;stroke-linecap:round;stroke-linejoin:bevel;stop-color:#000;stop-opacity:1" transform="translate(19168.399 6015.948)scale(3.28472)"/><path d="M-2559.55-1082.892c-4.196-.49-8.23-3.255-10.1-6.921-1.208-2.366-2.192-6.743-2.398-10.663-.191-3.634-.173-3.762.672-4.607 1.137-1.137 3.44-1.423 7.296-.906 2.035.273 98.16-4.455 137.854-5.585s50.053-1.425 88.06-.903c1.083.015 1.05 3.167 1.072 9.12.025 6.614-.299 8.511-1.63 9.559-2.353 1.85-13.289 3.18-42.217 5.134-7.22.487-15.823 1.118-19.118 1.4-15.768 1.356-45.857 2.823-75.448 3.68-33.649.974-78.473 1.343-84.042.692z" style="fill:#dee1da;fill-opacity:1;stroke:silver;stroke-width:.55684;stroke-linecap:round;stroke-linejoin:bevel;stroke-opacity:1" transform="translate(19168.399 6015.948)scale(3.28472)"/><path d="M-367.375-34.731c-2.293-.418-4.683-1.74-6.354-3.517-2.365-2.514-3.847-5.76-4.86-10.646l-.22-1.058-4.762-.303c-5.182-.33-9.082-.668-14.817-1.283-2.037-.219-4.315-.398-5.063-.398h-1.359l-.18 1.256c-1.003 6.981-4.218 10.916-9.902 12.121-6.992 1.482-12.054-1.373-13.867-7.821-.558-1.982-.982-4.935-.982-6.833v-1.573l-1.407-.176c-.775-.097-3.424-.657-5.887-1.246-2.464-.588-4.886-1.065-5.381-1.06-1.008.01-2.56-.693-3.273-1.482-.717-.793-1.514-3.335-1.514-4.827 0-1.176.08-1.372.676-1.644.592-.27.658-.425.526-1.25-.083-.52-.266-2.075-.406-3.457a125 125 0 0 0-.659-5.16c-.222-1.455-.534-5.061-.692-8.014-.354-6.624-.17-29.074.277-33.657 1.1-11.288 1.378-13.574 1.877-15.47 1.07-4.065 3.19-7.638 5.465-9.213 1.67-1.156 3.365-1.433 21.246-3.475 7.667-.875 24.036-2.641 30.824-3.326 6.752-.68 12.057-1.249 15.095-1.617 1.318-.159 3.64-.307 5.16-.33 2.523-.036 4.92.096 16.39.903 2.11.148 5.384.5 7.276.78s5.225.699 7.408.93c4.67.497 23.955 2.936 26.062 3.297.8.137 2.85.438 4.554.668 5.729.773 7.944 1.649 10.756 4.253 2.186 2.023 3.699 4.277 4.984 7.42 1.499 3.669 1.46 5.603-.165 8.051-.88 1.326-2.967 3.026-4.05 3.298-.557.14-.758.386-.891 1.094-.25 1.334.006 2.48 1.101 4.925a886 886 0 0 1 3.483 7.998c1.38 3.201 5.078 11.67 6.704 15.755 1.185 2.976 2.378 6.125 2.652 6.999 1.045 3.332.446 9.422-1.601 16.272-.544 1.82-1.148 4.365-1.342 5.657-.332 2.217-.324 2.37.143 2.712.273.2.8.363 1.173.363.372 0 1.055.232 1.518.514 1.018.62 1.29 1.895.961 4.502-.343 2.729-.934 2.958-9.872 3.836-2.256.221-5.24.473-6.634.559l-2.533.156-.575 1.953c-2.035 6.919-6.206 10.175-13.032 10.175-5.26 0-9.682-1.454-12.22-4.018-1.429-1.442-2.946-3.989-3.511-5.89l-.319-1.072-4.864.084c-2.674.047-6.709-.05-8.964-.213s-4.448-.32-4.872-.348c-.615-.042-.812.082-.971.61-.11.363-.45 1.533-.757 2.6-1.562 5.438-4.08 8.44-8.406 10.02-1.424.52-2.424.676-4.838.752-1.673.052-3.612-.009-4.309-.136m2.59-4.073c1.465-.688 3.628-2.836 4.7-4.666 1.413-2.416 1.834-5.774 1.243-9.922-.79-5.54-4.054-10.034-7.982-10.99-2.127-.516-4.111.262-6.212 2.436-3.945 4.082-4.547 12.28-1.343 18.29 1.435 2.694 5.138 5.449 7.344 5.466.51.003 1.522-.273 2.25-.614m-3.37-1.49c-2.117-.637-4.873-3.383-5.751-5.73-2.724-7.28.808-17.025 6.172-17.025 2.355 0 5.189 2.503 6.89 6.085 1.021 2.152 1.072 2.382 1.168 5.292.26 7.88-3.471 12.886-8.48 11.378m3.532-2.266c.39-.202 1.138-.866 1.66-1.477 3.27-3.82 2.819-11.114-.94-15.193-1.311-1.422-2.377-1.697-4.07-1.05-1.213.463-2.756 1.727-3.607 3.402-.63 1.238-1.316 2.707-1.379 5.355-.047 1.996.327 4.392.995 5.757.79 1.616 2.456 3.115 4.003 3.602.926.292 2.33.126 3.338-.396m-3.878-1.932c-.443-.27-1.022-.822-1.287-1.226l-.481-.735.967.738c1.12.855 2.1.913 3.53.212 1.94-.952 3.15-3.896 2.887-7.03-.126-1.5-.307-2.03-1.044-3.056-1.213-1.69-2.375-2.433-3.806-2.433-.634 0-1.152.12-1.152.265s-.119.264-.264.264c-.546 0-.234-.462.624-.924 1.998-1.076 4.426.132 5.858 2.917.7 1.36.79 1.795.766 3.678-.043 3.337-1.273 5.922-3.416 7.178-1.317.772-2.104.81-3.182.152m-3.245-5.725c.005-.436.065-.583.132-.325s.063.614-.01.793c-.072.18-.127-.031-.122-.468zm3.947-2.683c-.618-.27-.812-.476-.624-.665.406-.405 1.14-.172 1.588.504.451.682.29.708-.964.161m-51.76 10.373c2.978-1.745 4.344-6.784 3.178-11.726-1.117-4.739-2.824-7.471-5.244-8.396-1.601-.611-2.83-.368-4.148.823-1.91 1.726-3.378 5.226-3.01 7.183.212 1.136.306 1.01.656-.888 1.004-5.44 3.938-7.68 7.232-5.521 1.084.71 2.946 3.497 3.565 5.337 1.401 4.163.472 9.75-2.79 11.795-1.27.795-2.822.687-3.707.056-.737-.526-1.583-.954-2.91-3.946-.8-1.809-.022-5.137-.003-4.835.196 3.117.403 5.206 2.157 7.583.513.696 1.273.982 1.927 1.06.71.086 1.547-.09 1.886-.28 1.142-.641 2.087-1.822 2.844-3.553.657-1.502.662-5.85.01-7.723-.686-1.965-2.172-3.258-3.743-3.258-.648 0-1.456.127-1.796.282-2.612 1.19-5.697 11.018-.806 15.323 1.685 1.483 3.01 1.676 4.702.684zM-424.548-48c-.56-.8.279-1.08-.207-1.59-.313-.272-.457-.494-.32-.494.136 0 .806.527 1.488 1.17.682.645 1.511 1.224 1.842 1.288.332.063.037.132-.654.151-.731.338-2.105-.462-2.149-.525zm5.505-3.828c-.266-2.409-.064-3.17.399-1.504.327 1.18.373 3.777.066 3.777-.117 0-.326-1.023-.465-2.273m-.644-3.151c0-.219.047-.397.104-.397.058 0 .173.178.257.397.083.218.037.397-.104.397s-.257-.179-.257-.397m-3.872-.531c.092-.241.168-.485.168-.542 0-.3 1.649-.904 1.971-.723.27.15.002.415-.968.956-1.028.574-1.3.646-1.171.309m112.88 5.53c4.876-.214 10.114-.508 11.642-.652a248 248 0 0 1 6.747-.504c6.137-.372 9.727-.818 10.253-1.274.37-.322.463-.835.463-2.578 0-1.47-.113-2.269-.346-2.463-.25-.207-1.335-.183-3.903.088-1.956.206-4.857.47-6.448.586l-2.89.21-.35 1.546c-.425 1.88-1.092 3.07-1.803 3.215-1.018.209-7.441.646-12.085.823l-4.674.179-.285-1.03c-.158-.565-.287-1.423-.288-1.906 0-.482-.125-1.108-.276-1.39-.266-.498-.615-.51-12.104-.412-6.742.058-12.791-.01-14.064-.157-2.694-.312-3.045-.072-2.78 1.905.354 2.63 1.102 3.694 2.974 4.232 1.034.297 19.84.036 30.218-.419m-33.997-2.816-.011-3.242-3.481-.264c-1.915-.146-3.54-.324-3.611-.397s2.151-.132 4.94-.132h5.072l.156-10.98c.086-6.04.11-11.11.054-11.27-.144-.408-10.537-.637-28.96-.637h-15.303v1.72c0 .97-.115 1.72-.265 1.72-.149 0-.264-.753-.264-1.73v-1.731l-2.183.077-2.183.077.034 9.79c.02 5.383-.02 9.514-.086 9.177-.067-.336-.26-.66-.431-.718-.171-.059-4.713-.356-10.094-.662-5.382-.305-9.846-.623-9.922-.706-.076-.084 2.124-.075 4.889.02s7.338.249 10.162.342l5.135.17-.184-1.43c-.46-3.565-.645-9.617-.415-13.47.56-9.33.615-12.552.224-12.875-.28-.23-3.448-.217-12.938.054-6.912.198-19.384.444-27.715.548l-15.147.187.008 1.744c.014 3.11.867 12.549 1.532 16.957l.18 1.19 5.242.172c2.884.095 5.318.246 5.409.337.09.091-2.121.14-4.916.11-2.897-.032-5.18.05-5.312.192-.553.595.54 5.786 1.693 8.041.89 1.743 1.521 2.298 3.145 2.77 2.885.166 6.516.9 8.632 1.21.427 0 .48-.384.565-4.174.086-3.836.147-4.279.756-5.463 1.073-2.083 1.705-2.403 4.716-2.39 3.042.014 6.809.555 7.683 1.104.778.488 3.173 5.436 4.647 9.6.906 2.56 1.171 3.057 1.672 3.128.4.057.595-.052.595-.33 0-.57.46-.525.646.063.132.416.688.509 4.185.796 12.3 1.009 12.031.897 21.167 1.37l-.167-1.257c-.663-5.002-1.212-12.909-1.18-16.999.036-4.75.378-2.269.747 5.424.347 7.234.444 8.305 1.019 11.236.4 2.042.518 2.294 1.338 2.845.494.332 1.252.604 1.684.604.69 0 .764-.072.61-.596-.098-.327-.247-2.324-.332-4.437-.177-4.367.03-5.45 1.745-9.126 1.073-2.3 2.096-3.37 3.67-3.844 1.768-.53 7.14-.63 9.468-.175 1.155.226 2.623.493 3.263.593 1.882.295 2.94.87 4.412 2.403 1.735 1.806 4.317 6.879 5.236 10.287.872 3.236 1.056 3.646 1.991 4.432 1.145.964 3.437 1.62 6.122 1.753l.668.033zm-66.766-3.705c-1.772-5.79-2.62-8.08-3.576-9.646-.977-1.6-1.176-2.08-2.76-2.876 0 0-.57-.316-1.663-.592s-5.004-.252-5.004-.252c-4.42-.127-4.815-.1-5.34.364-.634.562-1.908 3.205-2.202 4.571-.275 1.277-.72.484-.503-.895.2-1.268.876-2.663 1.856-3.827 0 0 .38-.424.72-.577.888-.4 5.444-.156 5.444-.156 3.531.08 5.8.246 6.457.474 1.888.654 2.83 1.906 4.375 5.811 1.764 4.464 1.844 4.692 2.025 5.785.082.493.323 1.144.535 1.448.438.625.508 1.228.143 1.228-.134 0-.362-.387-.507-.86m61.36-3.746c-.413-.499-.654-2.081-.443-2.92.132-.528.327-.67.892-.65l.722.027-.661.183c-.524.144-.678.378-.741 1.12-.046.546.064 1.048.265 1.2.403.307 2.33.884 2.954.884.933 0 .13-1.953-1.122-2.73l-.695-.431.878-.007c1.494-.012 1.9.373 1.9 1.801 0 .694-.142 1.404-.317 1.579-.453.453-3.245.41-3.632-.056m-89.382-1.67c-.535-.1-.882-.862-.397-.871.109-.002.36-.106.556-.231.29-.184.267-.331-.125-.79-.539-.628-.94-.735-.874-.232.023.182.02.569-.007.86l-.05.529-.228-.53c-.388-.902-.289-1.352.377-1.708 1.036-.555 1.915-.174 2.12.92.097.515.29.865.431.778.14-.087.193-.26.115-.386-.077-.126-.02-.303.128-.394.398-.246.331 1.163-.074 1.568-.438.438-1.213.63-1.972.488m83.812-3.16c-.981-1.85-2.716-3.613-4.483-4.554-2.688-1.433-4.636-1.726-11.577-1.74-3.865-.008-5.973-.102-5.7-.255.61-.342 12.056-.305 13.817.044 4.075.808 6.48 2.558 8.011 5.83.914 1.952.865 2.434-.068.675m-29.573-8.995c-.592-.24-.35-.556.53-.69 1.058-.16 1.379.002.972.492-.31.373-.88.449-1.502.198m-10.98-10.43c-.331-.192-.463-.604-.463-1.447 0-.647.09-1.163.199-1.146.709.112 1.659-.073 1.52-.296-.209-.34.034-.336.68.01.396.211.51.556.507 1.52-.002.746-.09 1.111-.22.908-.118-.187-.413-.263-.657-.17-.574.22-.564.572.022.725.254.066.105.13-.331.143-.437.013-1.002-.098-1.257-.247zm.86-.215c0-.13-.195-.31-.434-.402-.363-.14-.38-.101-.1.236.38.459.534.507.534.166m-1.058-2.938c.218-.141.575-.25.793-.242q.392.016-.132.242c-.727.312-1.145.312-.661 0m83.608 34.131c0-.873.115-1.588.255-1.588s.246.663.237 1.472c-.01.81.06 1.55.153 1.643.095.095.137-.835.094-2.067-.077-2.223-.082-2.239-.805-2.322l-.728-.084v2.267c0 1.838.075 2.267.397 2.267.309 0 .397-.353.397-1.588m6.272 1.202c2.007-.051 4.513-.18 5.568-.285l1.918-.192v-1.818c0-1.035-.114-1.817-.264-1.817-.146 0-.265.089-.265.198 0 .169-1.862.222-10.494.299l-1.101.01-.09 1.736c-.107 2.099-.046 2.319.586 2.118.27-.086 2.135-.198 4.142-.25zm9.812-2.25c.118-2.032.098-2.127-.44-2.127-.523 0-.563.137-.563 1.963 0 2.204.185 2.985.608 2.562.15-.15.328-1.23.395-2.399m-35.068-2.508c2.074-.087 7.342-.212 11.708-.277 10.248-.153 16.997-.34 24.87-.69 3.493-.154 7.065-.301 7.938-.326l1.588-.046.08-1.521c.091-1.772.081-1.547-2.515-1.094-2.43.425-19.082 1.404-38.576 1.223-3.201-.03-6.332-.01-6.957.047l-1.136.1.078-1.626.078-1.627 3.043-.015c12.836.09 25.653-.63 38.474-1.156 5.434-.217 5.81.362 6.64-.75.771-1.033-.322-.827-1.584-.827-2.061.001-9.318.711-13.04.957-5.691.375-14.972.038-20.882.186-.218.006-1.19.073-3.157.06-3.429-.02-4.769-.155-5.658-.75-1.459-.976-2.116-2.566-2.116-5.12 0-4.633 2.115-8.58 5.122-9.56 1.211-.395 3.79-.46 23.585-.597l22.225-.154-.077-1.059c-.085-1.174-.535-2.705-1.679-5.712l-.763-2.008-10.912-.188c-24.455-.422-37.023-.688-40.346-.855-4.109-.207-3.833-.54-2.87 3.472 1.035 4.304 1.833 10.902 1.687 13.932-.07 1.447-.25 2.754-.4 2.905-.19.19-.315-1.475-.406-5.371-.132-5.728-.383-7.489-1.886-13.255-.459-1.763-.603-2.048-1.035-2.048-.24 0-.307 3.946-.28 16.735.019 9.204-.044 16.923.066 16.933 1.856.184 7.143.158 9.093.082m-6.272-3.426c-.104-1.106-.095-3.35.02-4.989.189-2.677.229-2.844.397-1.655.268 1.898.266 7.872-.002 8.295-.145.228-.296-.372-.416-1.651zm8.261.97c.476-.06 1.19-.058 1.588.002.397.06.008.109-.865.107-.873 0-1.198-.05-.723-.11zm-114.166-.404a29 29 0 0 1-1.12-2.697c-.246-.719-.583-1.352-.749-1.408-.542-.18-.641 1.194-.196 2.725.47 1.619 1.393 2.769 2.221 2.769.494 0 .487-.064-.156-1.39m140.025-1.394c10.83-.391 17.469-.788 18.261-1.092.809-.31.381-.689-.6-.533-5.6.893-26.082 1.737-42.614 1.756-2.81.003-5.05.102-4.977.219.192.31 17.099.113 29.93-.35m-20.381-5.176c1.321-1.218 1.827-2.434 1.785-4.296-.077-3.437-6.331-4.727-7.491-2.267-.93 1.739-1.133 3.636-.651 4.789.461 1.104.89 1.56 2.533 2.304 1.642.745 3.15.092 3.824-.53.675-.622 0 0 0 0m-4.206-.91c-.685-.518-.323-.82.52-.434.372.169 1.117.315 1.656.326.788.015.876.063.45.246-.82.352-2.064.287-2.626-.138m-1.74-3.005c0-1.963 1.17-3.472 2.692-3.472.557 0 1.013.127 1.013.281s-.209.26-.463.234c-1.634-.166-1.771-.061-2.287 1.74-.548 1.912-.955 2.43-.955 1.217m35.747 4.34c1.2-.174 1.006-2.104 1.03-3.517 0-.966.258-2.804.572-4.086.314-1.281.523-2.375.463-2.43s-2.847-.001-6.194.12c-3.347.122-9.25.042-13.288.05 0 0-6.472-.597-7.505.78-1.032 1.375-2.206 7.499-1.141 9.047.903.872 1.442.486 12.79.367 14.108-.148 13.068-.3 13.273-.33m-24.634-1.826v-.906l5.755-.052c3.165-.029 8.686-.13 12.27-.225 5.16-.137 6.353-.139 6.387.158.07.603-.042.632-.335.972-.238.348-4.278.567-17.529.83l-6.548.13zm.591-2.819.096-.838 12.194-.137 12.193-.137-.137.714c-.075.393-.27.755-.432.804-.163.05-5.631.167-12.152.261l-11.857.172zm.204-2.93v-.898l12.167-.033 12.167-.033-.166.694c-.092.382-.205.74-.251.795s-5.448.161-12.002.237l-11.916.137zm-8.053-3.68c1.961-.44 42.873-.832 43.969-.422.55.206.595.149.595-.757v-.98l-21.365.122c-22.956.132-23.25.149-25.688 1.52-1.16.65-2.024 1.684-1.763 2.107.084.136.807-.105 1.605-.537s1.99-.906 2.647-1.053m-15.1-7.868c0-2.874-.096-5.374-.213-5.556-14.086.5-28.218.438-42.317.408-3.31-.02-6.107.053-6.216.162-.11.11-.242 2.392-.295 5.071l-.096 4.873 21.923.07c12.058.037 23.114.097 24.569.133l2.646.065zm-44.478-.86c0-1.964.042-2.768.093-1.786.05.983.05 2.59 0 3.572s-.093.179-.093-1.786m5.243.617c-.48-.236-.99-.65-1.134-.92s-.424-.49-.622-.49c-1.006 0-.514-1.756.565-2.013.407-.096.931-.342 1.166-.545.73-.633 2.922-.737 4.572-.218.816.257 1.483.548 1.483.648s-1.026.127-2.28.06c-2.595-.135-5.128.307-5.128.896 0 .31.7.378 3.925.378 2.158 0 4.003-.079 4.099-.174.095-.096.041-.334-.121-.53-.217-.261-.215-.355.009-.355.36 0 .889 1.262.674 1.61-.083.133-.303.242-.49.242-.188 0-.568.255-.845.566-1.136 1.276-4.126 1.706-5.873.845zm5.038-.567c.4-.236.728-.522.728-.636 0-.238-2.319-.229-4.608.02-1.216.132-1.481.235-1.19.465 1.186.936 3.615 1.008 5.07.151m-25.944-5.076c7.29-.43 10.023-.083 10.162-.31.145-.233-2.826-.254-12.353-.085-6.9.122-14.39.242-16.645.268-11.548.13-24.61.436-25.665.601-.928.146-.433.22 2.249.342 1.892.086 3.856.117 4.366.07.509-.048 28.441-.328 37.886-.886m112.226-5.27c2.95.101.844.242 1.197.242.444 0 .145-.999-1.305-4.366-4.164-9.668-6.245-14.744-6.768-16.508-.06-.202-.173-.305-.25-.227-.254.253 1.49 5.341 2.913 8.981m-18.65 7.67c-.494-.77.785-.331.785-.331l15.823 4.357c2.62.54 3.096.854 3.785-.451.325-2.256-.4-4.378-1.447-7.148l-4.064-10.763c-.814-2.157-.408-3.853-5.056-4.271-11.458-1.032-15.973-1.478-27.707-1.86-4.65-.11-13.218-1.271-12.726 3.412.086.814 3.178 12.164 4.154 14.998.704 2.042 1.513 3.064 3.02 3.817 1.636.817 3.379 1.303 10.616 1.23 2.146-.02 3.659-.586-1.178-1.499-4.9-1.09-9.802-2.373-9.802-2.373-1.243-.281-.426-.78-.426-.78 5.293 1.42 10.28 2.528 15.455 3.639 3.427.735 2.118 1.68 10.32 2.004 7.925.313 12.715.715 12.868.402.179-.362-9.578-3.039-14.42-4.383m-15.022 3.946c-5.427.042-6.171-.008-7.829-.513-3.398-1.037-3.987-2.008-6.612-10.909-1.991-6.749-2.62-9.054-2.236-11.855-.006-.628 1.311-1.69 1.914-1.911 2.193-.805 9.97-.478 21.201.037 7.455.342 21.338 1.476 22.68 1.851.54.152 1.166.459 1.39.682.434.435.555.297.722-.82.062-.413-.15-.592-.98-.828-2.389-.68-15.312-1.713-28.31-2.26l-10.98-.466c-10.016.236-21.764.501-21.764.501s-27.956 1.24-29.424 2.249c-1.468 1.008-1.922 8.014-2.514 18.263-.151 2.62-.341 5.674-.422 6.788-.11 1.513-.06 2.08.2 2.24.613.38 4.181.41 4.192.035.087-3.091 1.285-16.79 1.613-18.432.809-4.06.69-5.906 2.243-7.675l2.843-.285c1.614-.161 5.33-.12 8.24-.267s6.94-.34 8.954-.427c11.55-.498 8.517-.31 10.383-.305 2.945.007 3.213-.324 4.094 2.014.515 1.37 3.472 11.399 4.38 14.859.21.8.554 1.99.764 2.646s.74 2.798 1.18 4.762c.439 1.965.867 3.816.95 4.115.142.5.484.567 4.436.86 2.355.176 13.153.443 23.994.594s20.604.305 21.696.342l3.505.121c.837.03 1.522-.04 1.522-.152 0-.256-1.358-3.445-1.765-4.146-.267-.46-5.163.01-7.367-.129m-91.807 3.688c.105-.17-.63-.254-2.035-.234-1.576.023-1.974.089-1.404.234 1.185.301 3.253.301 3.44 0m-47.36-1.325c3.201-.137 13.798-.318 23.548-.401s17.98-.204 18.288-.268c.543-.113.566-.286.707-5.345.153-5.473.945-15.016 1.62-19.498.522-3.48.93-3.933 3.657-4.058 3.882-.177 22.834-1.978 34.283-2.137 17.903-.25 35.977.042 53.682 1.851 2.926.323 4.072.108 4.592-.864.213-.397.15-.51-.34-.614-.923-.195-8.713-.897-11.979-1.08-1.6-.088-4.577-.336-6.615-.55-2.037-.214-7.097-.561-11.244-.771-4.148-.21-8.137-.45-8.866-.532-.73-.082-4.956-.258-9.393-.391-5.028-.15-9.114-.407-10.846-.68-2.926-.461-5.548-.437-14.816.137-2.401.148-8.652.512-13.89.808-5.24.295-13.098.828-17.463 1.185-4.366.356-11.748.895-16.404 1.198s-12.337.836-17.066 1.184c-4.73.349-9.811.713-11.293.81l-2.694.174-.15 1.627c-.367 3.947-.706 11.817-.86 19.987l-.169 8.837 3.945-.18c2.17-.1 6.564-.292 9.766-.43m9.798-3.24-.418-.595 3.776-.165c2.078-.091 6.04-.182 8.804-.203 2.765-.02 5.206-.152 5.424-.293.33-.213.307-.26-.132-.272-2.071-.061-6.464-.001-11.802.16l-6.245.19-.158-.635c-.087-.349-.178-5.26-.204-10.912-.044-9.743-.02-10.303.45-10.742.42-.391 1.6-.531 7.64-.905 9.198-.569 9.966-.564 10.752.073.61.493.63.642.796 6.02.095 3.032.182 7.954.194 10.937.022 5.167-.006 5.474-.575 6.483l-.598 1.058-3.168.162c-1.742.09-5.631.18-8.643.199-5.397.035-5.48.027-5.893-.56m9.453-12.563c-.072-5.205-.211-9.551-.31-9.66-.097-.107-1.87-.118-3.937-.024l-3.76.17v18.954l3.903.074c2.147.04 3.977.045 4.068.011.091-.033.107-4.32.035-9.525m7.868 1.216v-7.71l-1.389.167c-.764.091-2.005.168-2.759.169-2.297.004-2.278-.057-2.057 6.592.178 5.334.303 8.27.36 8.425.014.037 1.334.066 2.935.066h2.91zm-.003-8.76c-.002-.328-.076-1.043-.166-1.588l-.164-.993h-2.993c-1.715 0-3.062.114-3.156.266-.09.146-.085.797.013 1.447l.177 1.181 2.948.084c1.621.046 3.037.11 3.146.14.11.032.197-.21.196-.538m23.226 24.265c-.047.712 6.218.383 19.844.403 13.626-.178 19.98.106 19.923-.548-.048-.554-6.434-.007-19.963-.333-13.53.2-19.758-.234-19.804.478m22.451-1.614c.912-.037.885-2.903.04-2.85l-10.78.335-10.558.095-.716-.715c-.712-.712-.715-.73-.535-3.403.1-1.477.348-4.056.553-5.73.205-1.673.566-4.947.803-7.275s.604-4.577.816-4.997c.445-.882.356-1.072-.393-.834-1.44.457-2.109 3.34-2.672 11.52-.156 2.255-.344 4.517-.42 5.027-.19 1.29-.602 8.565-.495 8.75.006.01 23.628.192 24.357.077m18.615-.427c-.01-1.108-.537-4.292-.932-5.622-.215-.728-1.474-5.133-2.798-9.79-1.323-4.657-2.654-8.915-2.958-9.462-.792-1.428-1.67-1.595-8.123-1.544-5.603.044-19.797.7-21.432.99-2.382.422-2.506.722-3.16 7.635-.302 3.201-.665 6.319-.805 6.927-.141.609-.326 2.395-.41 3.97-.176 3.256.053 4.009 1.333 4.374.732.21 14.313-.14 18.851-.486l3.559-.113c.882-.028.154-1.164-.642-1.124l-7.746.382c-10.752.53-13.497.355-13.862.12-.408-.263-.38-1.101.37-11.14.488-6.525.764-8.295 1.39-8.905.381-.37 1.58-.518 6.943-.853 3.565-.223 8.328-.466 10.583-.54l4.101-.133-.168 3.76a290 290 0 0 0-.214 8.259c-.192 7.654-.274 10.12 1.239 10.085l10.703-.252c.994-.023 1.318-.697 1.273-1.78-.016-.385-5.563-16.771-7.32-21.37.521-.26.218-.125.448-.078.64 1.094 7.175 20.997 7.237 21.843.197 2.672-2.552 1.375-12.488 2.194-1.86.154-1.722 3.103-.405 3.197 2.987.213 5.863.008 8.89.025l6.548.026zm-12.472-4.425c-1.25-.377-2.357-1.176-2.518-1.816-.159-.633.052-10.316.349-15.984l.162-3.109h1.14c1.592 0 2.401.372 2.899 1.334.623 1.204 5.945 17.444 6.018 18.362.095 1.196-.712 1.466-4.304 1.444-1.674-.01-3.36-.114-3.746-.231m6.656-.242c.41-.114.694-.409.747-.775.047-.326-.448-2.226-1.1-4.223s-1.244-3.868-1.316-4.16c-.453-1.82-3.39-9.782-3.759-10.19-.568-.629-1.798-.905-2.457-.553-.478.256-.698 4.618-.864 9.154-.12 3.274-.346 7.986.142 9.285.236.624 1.441 1.2 2.037 1.41 1.125.4 5.382.38 6.57.052m-22.237.49c7.748-.273 10.908-.69 11.06-1.026.314-.694.254-2.82.263-5.006.036-1.843.185-5.786.33-8.763.144-2.977.174-5.492.066-5.59-.46-.414-20.05.586-20.512 1.048-.595.595-1.017 3.392-1.262 8.367-.144 2.91-.392 6.526-.55 8.036-.238 2.26-.225 2.785.071 2.972.456.29 1.356.286 10.534-.037m-67.456-26.301a546 546 0 0 1 8.202-.547 601 601 0 0 0 8.334-.55c2.91-.21 7.137-.5 9.393-.643 2.255-.143 5.232-.374 6.614-.513 1.383-.139 3.585-.325 4.895-.413s4.465-.325 7.012-.526a558 558 0 0 1 7.011-.513c8.227-.511 16.146-.962 21.431-1.221 4.531-.222 6.184-.392 6.471-.668.31-.298.32-.435.052-.703-.527-.525-6.584-.281-17.9.721-2.328.206-6.257.447-8.731.534s-5.45.271-6.615.408c-3.292.386-17.294 1.566-26.59 2.24-3.129.227-7.058.525-8.731.66-1.674.137-6.556.504-10.848.816s-7.908.663-8.034.779c-.548.505.189.835 1.517.679.747-.088 3.679-.33 6.517-.54m147.32-3.168c.181-3.448-3.058-9.334-6.216-11.296-1.388-.862-13.048-2.429-27.466-3.69-3.492-.306-8.255-.728-10.583-.938-2.329-.21-7.09-.457-10.582-.549l-6.349-.166-1.324-.913c-.728-.503-2.773-1.626-4.543-2.497-2.58-1.269-3.55-1.61-4.894-1.725-2.011-.17-1.86.191.34.818 2.906.828 5.947 3.461 8.076 6.993.956 1.585 2.251 5.365 2.77 8.089.455 2.381.113 2.194 4.864 2.659.728.071 1.561.193 1.852.27.855.226 8.666.896 17.066 1.462 4.293.29 9.115.65 10.715.802 2.95.28 10.076.843 17.061 1.348 2.108.152 4.906.433 6.218.624 1.312.19 2.505.321 2.65.29s.301-.743.345-1.581m-146.924.893c2.62-.151 8.632-.562 13.362-.911 4.73-.35 12.35-.888 16.933-1.195s10.418-.791 12.965-1.074c2.546-.283 7.845-.693 11.774-.91 3.929-.22 9.55-.584 12.49-.812 4.952-.293 13.483.309 14.384-1.154s-1.21-7.015-2.08-8.278c-1.205-1.752-3.026-3.839-5.066-4.8-3.036-1.429-11.3-.641-13.907-.348-2.038.229-4.657.491-5.821.583s-4.26.389-6.88.659-5.655.564-6.746.653a84 84 0 0 0-3.837.416c-1.897.261-9.078 1.02-16.14 1.706-2.182.212-6.528.69-9.657 1.062-3.128.372-7.379.842-9.444 1.044-5.235.513-6.487 1.175-8.378 4.43-.795 1.367-1.914 5.225-2.231 7.69l-.231 1.793 1.874-.14a585 585 0 0 1 6.636-.414m85.593-5.396c0-.441-1.138-4.604-1.704-6.23-.987-2.841-2.125-4.58-4.343-6.63-1.92-1.777-4.22-3.118-6.616-3.859-2.062-.637-5.005-.72-9.18-.26-11.52 1.27-24.11 2.607-26.443 2.808-3.206.276-9.013.925-12.965 1.45-1.6.213-5.172.635-7.937.936-9.617 1.05-15.883 1.87-17.155 2.247-1.441.426-3.086 1.361-3.086 1.755 0 .28.608.14 2.117-.487 1.195-.497 4.383-1.06 7.916-1.4 3.19-.307 11.62-1.228 23.172-2.532 4.366-.493 8.83-.97 9.922-1.06 1.091-.09 5.437-.519 9.657-.951 4.22-.433 9.511-1.063 11.774-1.189 12.678-.703 14.16.153 17.178 2.704 1.233 1.043 3.896 5.16 4.37 6.756.213.717.534 2.266.714 3.443.266 1.737.43 2.18.873 2.36.586.237 1.736.329 1.736.139m52.91-8.757c-.786-.946-2.862-1.508-8.328-2.254a726 726 0 0 1-7.276-1.037 205 205 0 0 0-7.54-.942c-2.183-.225-5.1-.577-6.483-.78a117 117 0 0 0-4.1-.533c-.874-.09-4.208-.51-7.41-.935-5.062-.672-8.237-.977-17.858-1.714l-1.985-.152 1.588.637c.873.35 2.658 1.269 3.966 2.042 0 0 1.5 1.13 2.379 1.406 2.865.44 4.682.435 4.682.435 2.548.122 7.858.256 11.86.558 4.001.301 8.704.641 10.45.754 6.74.438 16.92 1.598 24.21 2.76 1.091.173 2.03.284 2.088.244.057-.039-.053-.259-.244-.49" style="fill:#000;stroke:none;stroke-opacity:1" transform="translate(14988.465 3074.521)scale(12.41468)"/><path d="M-289.008-67.49c-.841-.255-1.687-1.3-1.828-2.257-.065-.438-.026-1.37.087-2.07.365-2.271 1.27-3.46 2.635-3.46 1.035 0 1.947.328 2.462 1.206.418.713.45 1.355.323 2.31-.118.883-.344 1.986-.502 2.452-.53 1.553-1.751 2.253-3.177 1.82z" style="fill:#dee1da;fill-opacity:1;stroke:#000;stroke-width:.294661;stroke-linecap:round;stroke-linejoin:bevel;stroke-opacity:1" transform="translate(14988.465 3074.521)scale(12.41468)"/><path d="M-289.718-72.791c.517-.685.818-.323.434.52-.17.372-.316 1.117-.326 1.656-.015.788-.063.876-.246.45-.353-.82-.288-2.064.138-2.626" style="fill:#000;stroke-width:1" transform="translate(14988.465 3074.521)scale(12.41468)"/><path d="M-2711.148-1259.498c-2.772-.09-3.174-.143-4.15-.551-2.975-1.244-3.873-3.206-4.044-8.837-.174-5.725.67-16.752 1.71-22.362.673-3.631 1.428-10.13 2.98-25.668 1.814-18.17 2.322-21.385 3.883-24.587 1.745-3.579 4.596-4.494 16.634-5.338 13.62-.956 44.723-2.324 63.931-2.813 7.336-.187 20.825-.199 24.098-.021l1.998.108 1.309 3.596c7.379 20.27 25.735 74.283 25.95 76.356.123 1.204-.212 3.15-.716 4.15-.502.995-1.602 1.844-2.688 2.075-.462.098-10.166.396-21.565.663-16.09.376-20.876.438-21.404.28-2.046-.613-3.128-3.374-3.553-9.07-.23-3.094-.236-13.103-.013-22.45.095-3.955.255-11.256.356-16.224.216-10.58.389-15.845.893-27.153.203-4.565.334-8.335.29-8.38-.082-.08-12.573.305-20.478.633-14.22.59-38.43 1.965-47.97 2.725-7.398.59-11.191 1.144-12.54 1.832-3.41 1.74-4.345 8.358-7.447 52.706-1.004 14.358-1.224 20.683-.779 22.45.255 1.011.643 1.33 1.959 1.607 3.189.674 16.704.661 34.242-.032 7.471-.295 8.288-.333 30.252-1.409 13.362-.654 16.533-.765 17.137-.595 1.33.372 2.686 1.823 2.686 2.872 0 .939-.197.968-8.354 1.243-4.136.14-8.664.332-10.062.429-9.663.667-34.817 1.523-49.198 1.675-4.727.05-9.423.113-10.436.14s-3.223 0-4.911-.05zm123.126-6.731c2.256-.371 3.312-.71 4.194-1.35 1.569-1.136 1.783-2.794.816-6.307-3.013-10.946-17.459-54.949-21.313-64.92-1.22-3.156-2.44-4.687-4.6-5.778-1.825-.921-3.707-1.207-7.967-1.21h-3.7l-.116 2.237c-.83 16.073-1.057 21.353-1.424 33.193-.41 13.228-.67 27.969-.574 32.462.104 4.847.19 5.164 1.835 6.794 1.204 1.193 2.51 2.078 4.582 3.103 2.748 1.36 4.4 1.694 9.939 2.01 4.3.245 16.353.093 18.328-.232z" style="display:inline;fill:#000;fill-opacity:1;stroke:#000;stroke-width:.657638;stroke-linecap:round;stroke-linejoin:bevel;stroke-dasharray:none;stroke-opacity:1" transform="translate(19168.399 6015.948)scale(3.28472)"/><path d="M-703.006-324.603c-.957-1.205-1.035-1.606-1.029-5.132.237-4.269.31-5.17.949-5.81.613-.613 6.502-.76 7.15-.385.689.4 1.029 1.593.734 5.426-.143 1.849-.439 4.982-1.922 6.076-2.057.137-5.122.132-5.882-.175z" style="fill:#dee1da;fill-opacity:1;stroke:silver;stroke-width:.744133;stroke-linecap:round;stroke-linejoin:bevel;stroke-dasharray:none;stroke-opacity:1" transform="translate(19146.651 5891.803)scale(12.41468)"/><path d="M-694.924-329.52c-.317 5.697-.692 5.744-4.906 5.747-5.95.004-4.71-1.804-4.712-6.853-.002-5.05.322-6.227 5.063-6.181 6.12.063 4.871 1.591 4.555 7.288m-1.004 1.684c.074-.495.515-5.562.465-6.067-.164-1.677-.155-2.182-4.567-2.115-3.505.054-3.63.188-3.776 6.228-.12 4.918.022 5.339 3.938 5.14 3.673.098 3.552-.608 3.94-3.186" style="fill:#0c1111;stroke:none;stroke-width:.5;stroke-dasharray:none;stroke-opacity:1" transform="translate(19146.651 5891.803)scale(12.41468)"/><path d="M-690.636-325.814c-2.53-2.68-5.48-2.902-7.15-3.31-.41.635-1.713.652-2.21.115-.499-.537-.513-1.615.004-2.274.637-.81 2.245-.616 2.515.7 2.1.436 5.88 1.507 7.57 3.114 1.688 1.606 3.225 2.472 3.517 7.272-.988.05-.923-.007-1.8-.017 0 0 .085-2.92-2.446-5.6z" style="fill:#dee1da;fill-opacity:1;stroke:#0c1111;stroke-width:.7;stroke-dasharray:none;stroke-opacity:1" transform="translate(19146.651 5891.803)scale(12.41468)"/><path d="M5565.567 1004.409c0 59.055 53.397 118.11 119.322 118.11 65.922 0 119.316-59.055 119.316-118.11 0-177.16-238.638-177.16-238.638 0m-133.82-250.565 84.42 83.563c93.013-92.126 244.428-92.126 337.435 0l84.416-83.563c-139.838-138.367-366.425-138.367-506.27 0m-337.444-334.07 84.361 83.563c279.154-276.319 733.282-276.319 1012.42 0l84.357-83.563c-326.15-322.848-854.97-322.848-1181.138 0m1012.425 167.062-84.356 83.504c-186.072-184.187-488.903-184.187-674.986 0l-84.361-83.504c232.976-230.605 610.74-230.605 843.703 0" style="fill:url(#b);fill-rule:evenodd;stroke:none;stroke-width:59.055" transform="translate(4750.674)"/><text xml:space="preserve" x="6238.018" y="2819.012" style="font-style:normal;font-variant:normal;font-weight:400;font-stretch:normal;font-size:43.6959px;line-height:0;font-family:&quot;Freestyle Script&quot;;-inkscape-font-specification:&quot;Freestyle Script, Normal&quot;;font-variant-ligatures:normal;font-variant-caps:normal;font-variant-numeric:normal;font-variant-east-asian:normal;text-align:start;writing-mode:lr-tb;direction:ltr;text-anchor:start;fill:#000;fill-opacity:1;stroke:none;stroke-width:1.796;stroke-linecap:round;stroke-linejoin:bevel;stroke-dasharray:none;stroke-opacity:1" transform="rotate(-3.621 2375.337 -75139.026)"><tspan x="6238.018" y="2819.012" style="font-style:normal;font-variant:normal;font-weight:400;font-stretch:normal;font-size:43.6959px;font-family:&quot;Freestyle Script&quot;;-inkscape-font-specification:&quot;Freestyle Script, Normal&quot;;font-variant-ligatures:normal;font-variant-caps:normal;font-variant-numeric:normal;font-variant-east-asian:normal;fill:#000;fill-opacity:1;stroke:none;stroke-width:1.796">LIBRE</tspan></text></svg>